<svg viewBox="0 0 1312 368" fill="none" xmlns="http://www.w3.org/2000/svg"><path fill-rule="evenodd" clip-rule="evenodd" d="M1172.64 180.255V360.51H1312V309.01H1238.66V0H1172.64V180.255ZM307.227 47.8238V80.9308H373.235V14.7135H307.227V47.8238ZM0 103.001L96.5756 360.504H179.829L268.226 103.001H194.466L163.853 198.649L135.994 283.259L106.318 193.132L76.641 103.004M307.227 231.759V360.51H373.235V103.004H307.227V231.759ZM446.586 231.759V360.51H505.26V154.505H629.933V103.004H446.579V231.759M666.604 231.759V360.51H725.278V154.505H849.951V103.004H666.597V231.759M886.622 128.755V154.505H952.63C1018.15 154.505 1018.63 154.642 1018.63 172.898C1018.63 189.625 1015.81 191.295 987.466 191.331C891.223 191.459 829.344 257.607 864.255 323.042C887.3 366.243 969.072 382.427 1016.8 353.235C1036.25 341.337 1040.63 340.666 1040.63 349.585C1040.63 358.035 1050.6 360.51 1084.63 360.51H1128.65V334.76C1128.65 311.053 1126.9 309.01 1106.65 309.01H1084.64V103.004H886.622V128.755ZM1025.98 261.52C1025.98 302.419 968.236 331.132 935.009 306.757C900.587 281.511 939.904 244.292 1002.14 243.208C1022.9 242.848 1025.97 245.212 1025.97 261.52" fill="#f0ece6"/></svg>